<svg xmlns="http://www.w3.org/2000/svg">
    <path id="main" d="M4.6 2.6C5 2.2 5.5 2 6 2H10.6C11.1 2 11.6 2.2 12 2.6L15.4 6C15.8 6.4 16 6.9 16 7.4V16C16 16.5 15.8 17 15.4 17.4 15 17.8 14.5 18 14 18H6C5.5 18 5 17.8 4.6 17.4 4.2 17 4 16.5 4 16V4C4 3.5 4.2 3 4.6 2.6ZM9.7 7.3C9.5 7.1 9.3 7 9 7 8.7 7 8.5 7.1 8.3 7.3 8.1 7.5 8 7.7 8 8V12.7C8 12.9 8.1 13.1 8.2 13.2 8.3 13.4 8.4 13.5 8.6 13.6L12 14.9C12.2 15 12.5 15 12.7 14.9 12.9 14.8 13.1 14.6 13.2 14.4 13.3 14.1 13.3 13.8 13.2 13.6 13.1 13.4 12.9 13.2 12.7 13.1L10 12V8C10 7.7 9.9 7.5 9.7 7.3Z"/>
</svg>
